<svg width="40" height="40" viewBox="0 0 40 40" fill="none" xmlns="http://www.w3.org/2000/svg">
<path fill-rule="evenodd" clip-rule="evenodd" d="M14.8438 1C14.8438 0.447715 15.2915 0 15.8438 0H24.0937C24.646 0 25.0937 0.447715 25.0937 1V38.5044C25.0937 39.0567 24.646 39.5044 24.0937 39.5044H15.8438C15.2915 39.5044 14.8438 39.0567 14.8438 38.5044V1ZM0.75 16.292C0.75 15.7398 1.19772 15.292 1.75 15.292H9.99994C10.5522 15.292 10.9999 15.7398 10.9999 16.292V38.5044C10.9999 39.0567 10.5522 39.5044 9.99994 39.5044H1.75C1.19772 39.5044 0.75 39.0567 0.75 38.5044V16.292ZM29.9375 8.92035C29.3852 8.92035 28.9375 9.36807 28.9375 9.92035V38.5044C28.9375 39.0567 29.3852 39.5044 29.9375 39.5044H38.1875C38.7398 39.5044 39.1875 39.0567 39.1875 38.5044V9.92035C39.1875 9.36807 38.7398 8.92035 38.1875 8.92035H29.9375Z" fill="#72BFB2"/>
</svg>
