<svg width="39" height="39" viewBox="0 0 39 39" fill="none" xmlns="http://www.w3.org/2000/svg">
<path fill-rule="evenodd" clip-rule="evenodd" d="M23.4206 17.6491H28.7399C29.5466 17.6491 30.1804 16.9858 30.1804 16.186C30.1804 15.3668 29.5466 14.7231 28.7399 14.7231H23.4206C22.614 14.7231 21.9803 15.3668 21.9803 16.186C21.9803 16.9858 22.614 17.6491 23.4206 17.6491ZM35.0581 7.50741C36.2295 7.50741 36.9977 7.91707 37.7659 8.81438C38.534 9.71172 38.6684 10.9992 38.4956 12.1677L36.6712 24.9642C36.3256 27.4242 34.2515 29.2363 31.8127 29.2363H10.8613C8.30723 29.2363 6.19482 27.2485 5.98359 24.6737L4.21683 3.40897L1.31707 2.90179C0.548912 2.76526 0.0112103 2.00448 0.145626 1.22418C0.280061 0.426357 1.02902 -0.102288 1.81637 0.0167027L6.39646 0.717002C7.04938 0.835993 7.52949 1.38024 7.5871 2.04349L7.95197 6.41308C8.00957 7.03925 8.50887 7.50741 9.12339 7.50741H35.0581ZM10.5537 32.3193C8.94056 32.3193 7.6347 33.6457 7.6347 35.2843C7.6347 36.9035 8.94056 38.2299 10.5537 38.2299C12.1476 38.2299 13.4535 36.9035 13.4535 35.2843C13.4535 33.6457 12.1476 32.3193 10.5537 32.3193ZM32.158 32.3193C30.5448 32.3193 29.2389 33.6457 29.2389 35.2843C29.2389 36.9035 30.5448 38.2299 32.158 38.2299C33.7519 38.2299 35.0578 36.9035 35.0578 35.2843C35.0578 33.6457 33.7519 32.3193 32.158 32.3193Z" fill="#EE8059"/>
</svg>
