<svg width="39" height="35" viewBox="0 0 39 35" fill="none" xmlns="http://www.w3.org/2000/svg">
<path fill-rule="evenodd" clip-rule="evenodd" d="M23.9082 9.10337C23.9082 14.157 19.7502 18.2067 14.562 18.2067C9.37555 18.2067 5.21585 14.157 5.21585 9.10337C5.21585 4.04981 9.37555 0 14.562 0C19.7502 0 23.9082 4.04981 23.9082 9.10337ZM0.4375 28.5147C0.4375 23.8365 6.94407 22.666 14.562 22.666C22.2214 22.666 28.6866 23.8768 28.6866 28.5586C28.6866 33.2367 22.1799 34.4071 14.562 34.4071C6.90269 34.4071 0.4375 33.1963 0.4375 28.5147ZM27.677 9.26841C27.677 11.8419 26.8835 14.2432 25.4918 16.2379C25.3471 16.443 25.4749 16.7195 25.7269 16.7635C26.0767 16.8203 26.4359 16.8551 26.8026 16.8625C30.4509 16.9558 33.7248 14.6681 34.6292 11.2228C35.9701 6.11062 32.036 1.52047 27.0245 1.52047C26.481 1.52047 25.9602 1.57543 25.4524 1.67616C25.3829 1.6908 25.3075 1.72378 25.2701 1.7824C25.221 1.85749 25.2568 1.95457 25.3058 2.01868C26.812 4.07563 27.677 6.57951 27.677 9.26841ZM33.7192 20.4575C36.1713 20.9245 37.7828 21.8753 38.4505 23.2619C39.0165 24.3975 39.0165 25.7162 38.4505 26.8519C37.4294 28.9985 34.1347 29.6891 32.8542 29.8667C32.589 29.9034 32.3764 29.6836 32.4047 29.4234C33.0591 23.4742 27.8558 20.6534 26.5093 20.005C26.4528 19.9739 26.4397 19.9299 26.4453 19.9007C26.4491 19.8823 26.4736 19.8531 26.5168 19.8475C29.4298 19.7927 32.5626 20.1828 33.7192 20.4575Z" fill="#779CE6"/>
</svg>
