<svg width="40" height="39" viewBox="0 0 40 39" fill="none" xmlns="http://www.w3.org/2000/svg">
<path fill-rule="evenodd" clip-rule="evenodd" d="M20.6586 0.400773C20.9655 0.126778 21.3714 -0.0168334 21.7869 0.0015744C30.5714 0.263126 37.9131 6.60579 39.2437 15.083C39.2521 15.1336 39.2521 15.1852 39.2437 15.2358C39.2723 15.6369 39.136 16.0326 38.8649 16.3353C38.5939 16.6383 38.2103 16.8232 37.7992 16.8494L23.0402 17.8173C22.552 17.8603 22.0679 17.7005 21.7068 17.3773C21.3456 17.0541 21.141 16.5972 21.1431 16.119L20.151 1.69995V1.46217C20.1691 1.05665 20.3516 0.674768 20.6586 0.400773ZM19.6463 21.5878L32.4385 20.7725L32.5255 20.8064C33.0748 20.8153 33.5979 21.0369 33.98 21.4222C34.3619 21.8078 34.5712 22.3254 34.5618 22.8614C34.0578 30.1674 28.6724 36.2718 21.3435 37.8444C14.0146 39.4171 6.50158 36.0804 2.90308 29.6549C1.84497 27.8042 1.17631 25.7659 0.936368 23.6597C0.843311 23.0356 0.802567 22.4051 0.81454 21.7745C0.838794 14.0057 6.39993 7.30018 14.1812 5.6571C15.1232 5.48174 16.0676 5.94953 16.4787 6.795C16.5809 6.94842 16.6628 7.11394 16.7222 7.28752C16.868 9.52704 17.0195 11.7453 17.1702 13.9543C17.2891 15.6988 17.4077 17.4373 17.5228 19.176C17.5169 19.5857 17.5816 19.9932 17.7142 20.3818C18.0265 21.1464 18.8039 21.6316 19.6463 21.5878Z" fill="#EB6077"/>
</svg>
